<?xml version="1.0" encoding="utf-8"?>
<!-- Generator: Adobe Illustrator 25.2.1, SVG Export Plug-In . SVG Version: 6.00 Build 0)  -->
<svg version="1.1" id="Layer_1" xmlns="http://www.w3.org/2000/svg" xmlns:xlink="http://www.w3.org/1999/xlink" x="0px" y="0px"
	 viewBox="0 0 304.6 346.9" style="enable-background:new 0 0 304.6 346.9;" xml:space="preserve">
<style type="text/css">
	.st0{fill:#9D9D9C;}
	.st1{fill:#432918;}
	.st2{fill:#E6332A;}
	.st3{fill:#FFFFFF;}
</style>
<g id="XMLID_2_">
	<g id="XMLID_53_">
		<path id="XMLID_57_" class="st0" d="M302.3,129.3l-11.2,101.2l-43,2.3l-25.3,39.6l-14.4,8.2l-0.8,8.7l-0.8,8.8l-24.3,13.4
			c1.4-5.6,2.1-12.7,1.7-21.4l9.2-5.4v-18.5l16-12.8l1.4-74L302.3,129.3z"/>
		<path id="XMLID_54_" class="st1" d="M182.6,313.9c-0.5,0-1-0.2-1.4-0.5c-0.7-0.6-1.1-1.5-0.8-2.4c1.4-6,2-13,1.6-20.8
			c0-0.9,0.4-1.7,1.1-2.1l8-4.7v-17.2c0-0.7,0.3-1.4,0.9-1.8l15.1-12.1l1.4-72.9c0-0.8,0.5-1.6,1.2-2l91.5-50.1
			c0.8-0.4,1.7-0.4,2.4,0.1c0.7,0.5,1.1,1.3,1,2.2l-11.2,101.2c-0.1,1.1-1,2-2.2,2.1l-41.8,2.3l-24.7,38.6c-0.2,0.3-0.5,0.6-0.8,0.8
			l-13.3,7.6l-1.4,16.3c-0.1,0.8-0.5,1.4-1.2,1.8l-24.3,13.4C183.4,313.8,183,313.9,182.6,313.9z M186.7,291.4
			c0.2,5.6-0.1,10.9-0.8,15.7l18.8-10.4l1.4-16.2c0.1-0.8,0.5-1.4,1.2-1.8l13.9-7.9l25-39.1c0.4-0.6,1.1-1,1.8-1.1l41-2.2l10.5-94.8
			L213.1,181l-1.4,72.7c0,0.7-0.3,1.3-0.9,1.8l-15.1,12.1V285c0,0.8-0.4,1.6-1.1,2L186.7,291.4z"/>
	</g>
	<g id="XMLID_48_">
		<path id="XMLID_52_" class="st1" d="M207.7,289.3l-0.8,8.8l-24.3,13.4c1.4-5.6,2.1-12.7,1.7-21.4l9.2-5.4v-9.9L207.7,289.3z"/>
		<path id="XMLID_49_" class="st1" d="M182.6,313.9c-0.5,0-1-0.2-1.4-0.5c-0.7-0.6-1.1-1.5-0.8-2.4c1.4-6,2-13,1.6-20.8
			c0-0.9,0.4-1.7,1.1-2.1l8-4.7v-8.6c0-0.9,0.6-1.8,1.4-2.1c0.9-0.4,1.9-0.1,2.5,0.5l14.2,14.5c0.5,0.5,0.7,1.1,0.7,1.8l-0.8,8.8
			c-0.1,0.8-0.5,1.4-1.2,1.8l-24.3,13.4C183.4,313.8,183,313.9,182.6,313.9z M186.7,291.4c0.2,5.6-0.1,10.9-0.8,15.7l18.8-10.4
			l0.6-6.5l-9.5-9.7v4.2c0,0.8-0.4,1.6-1.1,2L186.7,291.4z"/>
	</g>
	<g id="XMLID_43_">
		<path id="XMLID_47_" class="st0" d="M215.6,170.3c0,0,23.4-96.8-97.6-99.1c-121,2.3-97.6,99.1-97.6,99.1
			C-2.7,233,64.3,238,64.3,238c-28.5,74,0,93.2,0,93.2c10.6,8.2,22.1,7.6,28.8,6.3c2.6-0.5,5.1-1.6,7.5-2.8
			c5.8-2.8,17.5-3.4,17.5-3.4s11.6,0.6,17.5,3.4c2.4,1.2,4.9,2.3,7.5,2.8c6.6,1.4,18.1,1.9,28.8-6.3c0,0,28.5-19.3,0-93.2
			C171.8,237.9,238.7,232.9,215.6,170.3z"/>
		<path id="XMLID_44_" class="st1" d="M150.9,340.5c-3.3,0-6.1-0.4-8.3-0.8c-3-0.6-5.7-1.9-8.1-3c-5.3-2.6-16.5-3.2-16.6-3.2
			c0.1,0-11,0.6-16.3,3.2c-2.3,1.1-5.1,2.4-8.1,3c-6.5,1.3-19.1,2.2-30.6-6.7c-1.1-0.7-28.9-20.6-1.8-93.1
			c-8.2-1.2-30.5-5.9-41.6-23.1c-7.8-12.1-8.3-27.8-1.5-46.7c-1.2-5.5-7.5-40,13.8-67.6C48.5,80.9,77.5,69.6,118,68.8
			c40.6,0.8,69.6,12.1,86.2,33.7c21.3,27.6,15,62.1,13.8,67.6c6.8,18.9,6.3,34.6-1.5,46.7c-11.1,17.2-33.4,21.9-41.6,23.1
			c27.1,72.5-0.7,92.4-1.9,93.2C165.5,339,157.3,340.5,150.9,340.5z M117.9,328.8c0.7,0,12.4,0.7,18.6,3.7c2.1,1,4.5,2.1,7,2.6
			c7,1.4,17.3,1.6,26.9-5.8c0.4-0.3,26.6-19.6-0.7-90.6c-0.3-0.7-0.2-1.4,0.2-2.1c0.4-0.6,1.1-1,1.8-1.1c0.3,0,28.9-2.4,41.1-21.3
			c7.1-11,7.3-25.5,0.8-43.2c-0.2-0.4-0.2-0.9-0.1-1.3c0.1-0.4,8.5-36.8-12.9-64.4C184.8,84.9,157,74.2,118,73.4
			c-38.9,0.7-66.7,11.5-82.5,31.9c-21.4,27.7-12.9,64-12.8,64.4c0.1,0.4,0.1,0.9-0.1,1.3c-6.5,17.7-6.3,32.3,0.8,43.2
			c12.2,19,40.8,21.3,41.1,21.3c0.7,0.1,1.4,0.5,1.8,1.1s0.5,1.4,0.2,2.1c-27.5,71.4-1.1,90.3-0.9,90.5c9.7,7.5,20,7.4,27,5.9
			c2.5-0.5,4.9-1.6,7-2.6C105.7,329.5,117.4,328.9,117.9,328.8z"/>
	</g>
	<g id="XMLID_38_">
		<path id="XMLID_42_" class="st0" d="M61.5,328.5l-15.6,12.9c0,0-9.1,9.9,26.2-5.8C72.1,335.7,64.8,333.1,61.5,328.5z"/>
		<path id="XMLID_39_" class="st1" d="M46.6,346.9c-2,0-2.9-0.7-3.5-1.5c-1.3-1.8-0.3-4,1.1-5.5c0.1-0.1,0.1-0.1,0.2-0.2L60,326.8
			c0.5-0.4,1.1-0.6,1.8-0.5c0.6,0.1,1.2,0.4,1.6,1c2.3,3.3,7.6,5.7,9.5,6.4c0.9,0.3,1.5,1.1,1.5,2.1s-0.5,1.8-1.4,2.2
			C57.3,344.8,50.1,346.9,46.6,346.9z M61.3,331.7L48.9,342c2.6-0.6,7.8-2.2,17.6-6.4C64.8,334.6,62.9,333.3,61.3,331.7z"/>
	</g>
	<g id="XMLID_33_">
		<path id="XMLID_37_" class="st0" d="M74.6,77.4c0,0-23.3,6.5-37.7,22.8c0,0-20.1-11.2-29.6-42.7C2.9,43.4,0.8,25.3,3.5,2.3
			c0,0,16.1,3.6,33.7,18C51.1,31.6,65.8,49.4,74.6,77.4z"/>
		<path id="XMLID_34_" class="st1" d="M36.9,102.4c-0.4,0-0.8-0.1-1.1-0.3c-0.9-0.5-21.1-12-30.7-44C0,41.8-1.2,22.9,1.2,2
			c0.1-0.7,0.4-1.2,1-1.6C2.7,0.1,3.4-0.1,4,0.1C4.7,0.3,20.9,4,38.7,18.5c17.7,14.4,30.5,34,38.1,58.2c0.2,0.6,0.1,1.2-0.2,1.8
			c-0.3,0.5-0.8,1-1.4,1.1c-0.2,0.1-22.9,6.5-36.6,22.1C38.2,102.2,37.5,102.4,36.9,102.4z M5.5,5.3c-2,19.2-0.6,36.5,3.9,51.5
			C17,82,31.7,93.8,36.5,97.1c12.1-12.8,29-19.3,35.2-21.3C64.3,53.5,52.3,35.4,35.8,22C22.8,11.5,10.6,6.9,5.5,5.3z"/>
	</g>
	<path id="XMLID_32_" class="st1" d="M106.4,181c-1.8,0-3-0.3-3-0.3c-3-0.8-5.2-2.4-6.3-4.8c-2-4.2,0.2-9.2,0.3-9.4
		c0.3-0.8,1.3-1.1,2-0.8c0.8,0.3,1.1,1.3,0.8,2c0,0-1.7,3.9-0.3,6.8c0.7,1.5,2.1,2.5,4.3,3.1c0.3,0.1,8,2,12.5-6.4
		c0.4-0.8,1.3-1,2.1-0.6c0.8,0.4,1,1.3,0.6,2.1C115.7,179.8,109.9,181,106.4,181z"/>
	<circle id="XMLID_31_" class="st1" cx="72.3" cy="166" r="9.3"/>
	<circle id="XMLID_30_" class="st2" cx="48.1" cy="190.2" r="14.8"/>
	<circle id="XMLID_29_" class="st3" cx="42.6" cy="184.5" r="3.2"/>
	<path id="XMLID_28_" class="st1" d="M80.6,295.6c-0.7,0-1.3-0.1-2-0.3c-7-1.7-12.8-12.1-13.1-12.5c-0.4-0.7-0.1-1.7,0.6-2.1
		s1.7-0.1,2.1,0.6c1.5,2.7,6.4,9.9,11.1,11.1c1.4,0.3,2.6,0.1,3.8-0.6c0.1,0,5.6-4.6-6-32c-0.3-0.8,0-1.7,0.8-2s1.7,0,2,0.8
		c12.6,29.7,6.2,35.1,4.8,35.9C83.4,295.2,82.1,295.6,80.6,295.6z"/>
	<g id="XMLID_23_">
		<path id="XMLID_27_" class="st1" d="M37.2,20.3C21.1,31.8,12,46.2,7.2,57.5C2.9,43.4,0.8,25.3,3.5,2.3C3.5,2.3,19.6,5.9,37.2,20.3
			z"/>
		<path id="XMLID_24_" class="st1" d="M7.2,59.8L7.2,59.8c-1.1-0.1-1.9-0.7-2.2-1.6C0,41.8-1.2,22.9,1.2,2c0.1-0.7,0.4-1.2,1-1.6
			C2.7,0.1,3.4-0.1,4,0.1C4.7,0.3,20.9,4,38.7,18.5c0.6,0.5,0.9,1.1,0.8,1.9c0,0.7-0.4,1.4-1,1.8C22.3,33.8,13.7,48.3,9.3,58.4
			C9,59.2,8.1,59.8,7.2,59.8z M5.5,5.3C3.8,22,4.6,37.2,7.8,50.8c4.8-9.4,12.8-20.8,25.6-30.6C21.4,10.9,10.3,6.8,5.5,5.3z"/>
	</g>
	<g id="XMLID_18_">
		<path id="XMLID_22_" class="st0" d="M174.6,328.5l15.6,12.9c0,0,9.1,9.9-26.2-5.8C164,335.7,171.3,333.1,174.6,328.5z"/>
		<path id="XMLID_19_" class="st1" d="M189.5,346.9c-3.5,0-10.7-2.1-26.5-9.1c-0.9-0.4-1.4-1.3-1.4-2.2c0-0.9,0.6-1.8,1.5-2.1
			c0.1,0,6.7-2.4,9.5-6.4c0.4-0.5,0.9-0.9,1.6-1c0.6-0.1,1.3,0.1,1.8,0.5l15.6,12.9c0.1,0.1,0.2,0.1,0.2,0.2
			c1.4,1.5,2.4,3.7,1.1,5.5C192.4,346.2,191.5,346.9,189.5,346.9z M169.6,335.6c9.8,4.2,15,5.8,17.6,6.4l-12.3-10.2
			C173.2,333.3,171.3,334.6,169.6,335.6z"/>
	</g>
	<g id="XMLID_13_">
		<path id="XMLID_17_" class="st0" d="M161.5,77.4c0,0,23.3,6.5,37.7,22.8c0,0,20.1-11.2,29.6-42.7c4.3-14.1,6.4-32.2,3.7-55.1
			c0,0-16.1,3.6-33.7,18C185,31.6,170.3,49.4,161.5,77.4z"/>
		<path id="XMLID_14_" class="st1" d="M199.2,102.4c-0.6,0-1.3-0.3-1.7-0.8c-13.7-15.5-36.4-22-36.6-22.1c-0.6-0.2-1.1-0.6-1.4-1.1
			c-0.3-0.5-0.4-1.2-0.2-1.8c7.5-24.2,20.4-43.7,38.1-58.2c17.8-14.6,34-18.3,34.7-18.4c0.6-0.1,1.3,0,1.8,0.4s0.9,1,1,1.6
			c2.4,20.9,1.2,39.8-3.8,56.1c-9.7,32-29.9,43.6-30.7,44C200,102.3,199.6,102.4,199.2,102.4z M164.4,75.8c6.1,2,23.1,8.5,35.2,21.3
			c4.7-3.3,19.4-15.2,27-40.4c4.6-15,5.9-32.3,3.9-51.5c-5.1,1.6-17.3,6.2-30.3,16.8C183.9,35.5,171.8,53.6,164.4,75.8z"/>
	</g>
	<path id="XMLID_12_" class="st1" d="M129.7,181c-3.5,0-9.3-1.2-13-8.2c-0.4-0.8-0.1-1.7,0.6-2.1c0.7-0.4,1.7-0.1,2.1,0.6
		c4.4,8.4,12.2,6.4,12.5,6.4c2.1-0.6,3.6-1.6,4.3-3.1c1.4-2.9-0.3-6.8-0.3-6.8c-0.3-0.8,0-1.7,0.8-2s1.7,0,2,0.8
		c0.1,0.2,2.3,5.2,0.3,9.4c-1.1,2.3-3.2,3.9-6.3,4.8C132.7,180.7,131.5,181,129.7,181z"/>
	<circle id="XMLID_11_" class="st1" cx="163.8" cy="166" r="9.3"/>
	<circle id="XMLID_10_" class="st2" cx="188" cy="190.2" r="14.8"/>
	<circle id="XMLID_9_" class="st3" cx="193.5" cy="184.5" r="3.2"/>
	<path id="XMLID_8_" class="st1" d="M155.5,295.6c-1.5,0-2.9-0.4-4.2-1.3c-1.3-0.7-7.7-6.1,4.9-35.8c0.3-0.8,1.2-1.1,2-0.8
		c0.8,0.3,1.1,1.2,0.8,2c-11.6,27.4-6.1,32-6,32c1.2,0.8,2.4,1,3.8,0.6c4.7-1.2,9.6-8.4,11.1-11.1c0.4-0.7,1.4-1,2.1-0.6
		c0.7,0.4,1,1.4,0.6,2.1c-0.2,0.4-6.1,10.8-13.1,12.5C156.9,295.5,156.2,295.6,155.5,295.6z"/>
	<g id="XMLID_3_">
		<path id="XMLID_7_" class="st1" d="M198.8,20.3c16.1,11.5,25.2,25.9,30,37.2c4.3-14.1,6.4-32.2,3.7-55.1
			C232.6,2.3,216.5,5.9,198.8,20.3z"/>
		<path id="XMLID_4_" class="st1" d="M228.9,59.8c-0.9,0-1.8-0.5-2.1-1.4c-4.3-10.1-12.9-24.5-29.2-36.2c-0.6-0.4-0.9-1.1-1-1.8
			c0-0.7,0.3-1.4,0.8-1.9c17.8-14.6,34-18.3,34.7-18.4c0.6-0.1,1.3,0,1.8,0.4s0.9,1,1,1.6c2.4,20.9,1.2,39.8-3.8,56.1
			C230.8,59.1,230,59.8,228.9,59.8C229,59.8,228.9,59.8,228.9,59.8z M202.7,20.2c12.8,9.8,20.8,21.2,25.6,30.6
			c3.2-13.6,4-28.8,2.3-45.5C225.8,6.8,214.7,10.9,202.7,20.2z"/>
	</g>
</g>
</svg>
